<?xml version="1.0" encoding="utf-8"?>
<svg xmlns="http://www.w3.org/2000/svg" width="826" height="826" viewBox="0 0 826 826" fill="none" xml:space="preserve">
<style>

g.layer6 {
    opacity: 0;
    animation: animlayer6 1.5s linear;
    animation-fill-mode: forwards;
}

g.layer5 {
    opacity: 0;
    animation: animlayer5 1.5s linear;
    animation-fill-mode: forwards;
}

g.layer4 {
    opacity: 0;
    animation: animlayer4 2.5s linear;
    animation-fill-mode: forwards;
}

g.layer3 {
    opacity: 0;
    animation: animlayer3 1.5s linear;
    animation-fill-mode: forwards;
}

g.layer2 {
    opacity: 0;
    animation: animlayer2 1.5s linear;
    animation-fill-mode: forwards;
}

g.layer1 {
    opacity: 0;
    animation: animlayer1 1.5s linear;
    animation-fill-mode: forwards;
}

@keyframes animlayer1 {
  0% {
      opacity: 0;
      transform: translateY(64px);
  }
  100% {
      opacity: 1;
      transform: translateY(0px);
  }
}

@keyframes animlayer2 {
  0% {
      opacity: 0;
      transform: translateY(44px);
  }
  100% {
      opacity: 1;
      transform: translateY(0px);
  }
}

@keyframes animlayer3 {
  0% {
      opacity: 0;
      transform: translateY(24px);
  }
  100% {
      opacity: 1;
      transform: translateY(0px);
  }
}

@keyframes animlayer4 {
  0% {
      opacity: 0;
  }
  100% {
      opacity: 1;
  }
}

@keyframes animlayer5 {
  0% {
      opacity: 0;
      transform: translate(27px, 19px);
  }
  100% {
      opacity: 1;
      transform: translate(0px);
  }
}

@keyframes animlayer6 {
  0% {
      opacity: 0;
      transform: translate(-27px, -19px);
  }
  100% {
      opacity: 1;
      transform: translate(0px);
  }
}
</style>
    <g opacity="0.6" filter="url(#filter0_f_627_54)">
    <circle cx="413" cy="413" r="133" fill="#0069FF"/>
    </g>
    <g class="layer4">
        <path opacity="0.3" d="M379.985 617.616L260.373 550.095L140.639 482.787V483.735L260.289 416.002L379.788 348.036H379.189L512.269 423.461L645.462 498.567L512.691 422.9L379.788 347.407L379.498 347.252L379.189 347.427L259.446 414.986L139.843 482.787L139 483.261L139.843 483.735L259.858 550.782L379.985 617.616Z" fill="#0069FF"/>
        <path opacity="0.6" d="M379.985 347.252L260.373 414.772L140.639 482.08V481.132L260.289 548.865L379.788 616.831H379.189L512.269 541.406L645.462 466.3L512.691 541.967L379.788 617.46L379.498 617.615L379.189 617.441L259.446 549.881L139.843 482.08L139 481.606L139.843 481.132L259.858 414.085L379.985 347.252Z" fill="#0069FF"/>
    </g>
    <g class="layer4">
        <path style="mix-blend-mode:multiply" opacity="0.2" d="M373.85 440.227L357.273 450.163L238.438 521.37L371.612 600.974L490.672 532.418L508.523 522.144L373.85 440.227Z" fill="url(#paint0_linear_627_54)"/>
    </g>
    <g class="layer3">
        <g style="mix-blend-mode:screen" opacity="0.5">
            <path style="mix-blend-mode:screen" d="M366.92 577.339L366.685 577.204L232.818 497.183L233.521 496.767L369.177 415.479L504.786 497.967L366.929 577.339H366.92ZM234.692 497.183L366.929 576.227L502.894 497.948L369.167 416.602L234.692 497.183V497.183Z" fill="url(#paint1_linear_627_54)"/>
        </g>
    </g>
    <g class="layer2">
        <path opacity="0.4" d="M369.168 396.691L352.59 406.627L233.755 477.834L366.929 557.438L485.989 488.882L503.84 478.608L369.168 396.691Z" fill="url(#paint2_linear_627_54)"/>
    </g>
    <g class="layer1">
        <path d="M372.539 540.576L372.305 540.44L238.438 460.42L374.787 378.716L510.396 461.203L372.539 540.576V540.576ZM240.311 460.42L372.549 539.463L508.514 461.184L374.787 379.838L240.311 460.42V460.42Z" fill="#4894FF"/>
    </g>
    <g class="layer2">
        <g style="mix-blend-mode:screen" opacity="0.5">
            <path style="mix-blend-mode:screen" d="M366.92 557.99L366.685 557.855L232.818 477.834L233.521 477.418L369.177 396.13L504.786 478.618L366.929 557.99H366.92ZM234.692 477.834L366.929 556.878L502.894 478.599L369.167 397.253L234.692 477.834V477.834Z" fill="url(#paint3_linear_627_54)"/>
        </g>
    </g>
   <g class="layer1">
       <path d="M508.523 444.746L373.851 362.83L357.273 372.766L490.672 455.021L508.523 444.746Z" fill="#0A1D5C"/>
        <path d="M357.273 372.765L238.438 443.971L371.612 523.576L490.672 455.02L357.273 372.765Z" fill="#0A1D5D"/>
        <path d="M371.612 523.577L373.101 539.801L509.272 460.206L508.523 444.746L371.612 523.577Z" fill="url(#paint4_linear_627_54)"/>
        <path d="M238.438 443.972L239.187 461.745L373.101 539.801L371.612 523.577L238.438 443.972Z" fill="url(#paint5_linear_627_54)"/>
        <path d="M371.603 524.128L371.369 523.993L237.501 443.972L373.851 362.268L509.46 444.756L371.603 524.128V524.128ZM239.375 443.972L371.612 523.015L507.577 444.736L373.851 363.39L239.375 443.972V443.972Z" fill="#3D8DFF"/>
   </g>
    <g class="layer4">
        <path d="M299.345 369.321C299.345 369.321 300.412 368.653 302.286 367.492C304.168 366.341 306.847 364.706 310.069 362.732C313.309 360.797 317.056 358.495 321.12 356.095C325.176 353.696 329.512 351.142 333.839 348.578C338.185 346.063 342.54 343.537 346.615 341.177C350.689 338.806 354.529 336.668 357.807 334.801C361.094 332.963 363.838 331.425 365.758 330.351C367.688 329.296 368.784 328.687 368.784 328.687C368.784 328.687 367.716 329.354 365.843 330.515C363.97 331.666 361.282 333.301 358.06 335.275C354.819 337.21 351.073 339.513 347.008 341.912C342.952 344.311 338.616 346.866 334.289 349.429C329.943 351.945 325.588 354.47 321.514 356.831C317.44 359.191 313.6 361.339 310.322 363.206C307.034 365.045 304.29 366.583 302.37 367.657C300.441 368.711 299.345 369.321 299.345 369.321V369.321Z" fill="#0069FF"/>
        <path d="M300.066 369.235C300.206 367.774 301.415 366.081 302.745 365.471C304.084 364.862 305.011 365.636 304.815 367.184C304.618 368.732 303.41 370.425 302.136 370.947C300.862 371.47 299.925 370.696 300.066 369.235Z" fill="#0069FF"/>
        <path d="M186.954 436.078C186.954 436.078 188.021 435.41 189.895 434.249C191.777 433.098 194.456 431.463 197.678 429.489C200.918 427.554 204.665 425.252 208.729 422.852C212.785 420.453 217.121 417.899 221.448 415.335C225.794 412.819 230.149 410.294 234.223 407.934C238.298 405.563 242.138 403.425 245.416 401.558C248.703 399.72 251.447 398.181 253.367 397.107C255.297 396.053 256.393 395.443 256.393 395.443C256.393 395.443 255.325 396.111 253.452 397.272C251.578 398.423 248.89 400.058 245.669 402.032C242.428 403.967 238.682 406.269 234.617 408.669C230.561 411.068 226.225 413.622 221.898 416.186C217.552 418.702 213.197 421.227 209.123 423.587C205.049 425.948 201.209 428.096 197.93 429.963C194.643 431.801 191.899 433.34 189.979 434.414C188.049 435.468 186.954 436.078 186.954 436.078Z" fill="#0069FF"/>
        <path d="M187.675 435.991C187.815 434.53 189.024 432.837 190.354 432.227C191.693 431.618 192.62 432.392 192.423 433.95C192.227 435.498 191.019 437.191 189.745 437.713C188.471 438.236 187.534 437.462 187.675 435.991Z" fill="#0069FF"/>
        <path d="M453.077 368.354C453.077 368.354 452.009 367.686 450.136 366.525C448.253 365.374 445.575 363.739 442.353 361.765C439.112 359.83 435.366 357.527 431.301 355.128C427.246 352.729 422.909 350.175 418.582 347.611C414.236 345.095 409.881 342.57 405.807 340.209C401.733 337.839 397.893 335.701 394.615 333.834C391.327 331.996 388.583 330.457 386.663 329.383C384.734 328.329 383.638 327.719 383.638 327.719C383.638 327.719 384.706 328.387 386.579 329.548C388.452 330.699 391.14 332.334 394.362 334.308C397.603 336.243 401.349 338.545 405.414 340.945C409.469 343.344 413.806 345.898 418.133 348.462C422.478 350.978 426.834 353.503 430.908 355.863C434.982 358.224 438.822 360.372 442.1 362.239C445.387 364.077 448.132 365.616 450.052 366.689C451.981 367.744 453.077 368.354 453.077 368.354V368.354Z" fill="#0069FF"/>
        <path d="M452.356 368.266C452.215 366.805 451.007 365.112 449.677 364.503C448.338 363.893 447.411 364.667 447.607 366.225C447.804 367.783 449.012 369.466 450.286 369.989C451.56 370.511 452.496 369.737 452.356 368.266Z" fill="#0069FF"/>
        <path d="M661 490.257C661 490.257 659.932 489.589 658.059 488.428C656.177 487.277 653.498 485.642 650.276 483.668C647.036 481.733 643.289 479.431 639.224 477.031C635.169 474.632 630.833 472.078 626.506 469.514C622.16 466.989 617.805 464.473 613.73 462.113C609.656 459.742 605.816 457.604 602.538 455.737C599.251 453.899 596.506 452.361 594.586 451.287C592.657 450.232 591.561 449.623 591.561 449.623C591.561 449.623 592.629 450.29 594.502 451.451C596.375 452.602 599.063 454.237 602.285 456.211C605.526 458.146 609.272 460.449 613.337 462.848C617.392 465.247 621.729 467.802 626.056 470.365C630.402 472.881 634.757 475.406 638.831 477.767C642.905 480.127 646.745 482.275 650.023 484.142C653.311 485.981 656.055 487.519 657.975 488.593C659.904 489.647 661 490.257 661 490.257Z" fill="#0069FF"/>
        <path d="M660.279 490.17C660.139 488.709 658.93 487.016 657.6 486.407C656.261 485.797 655.334 486.571 655.53 488.129C655.727 489.686 656.935 491.37 658.209 491.892C659.483 492.415 660.42 491.641 660.279 490.17Z" fill="#0069FF"/>
    </g>
    <g class="layer5">
        <path d="M609.283 403.764L608.809 404.599L659.88 435.513L660.354 434.678L609.283 403.764Z" fill="#1879F9"/>
        <path d="M626.584 424.505L626.115 425.342L659.357 445.183L659.825 444.346L626.584 424.505Z" fill="#1879F9"/>
        <path d="M643.022 444.867L642.523 445.686L658.909 456.337L659.408 455.518L643.022 444.867Z" fill="#1879F9"/>
        <path d="M625.696 435.209L625.232 436.049L635.066 441.848L635.53 441.008L625.696 435.209Z" fill="#1879F9"/>
        <path d="M638.799 411.494L638.333 412.333L660.343 425.391L660.81 424.552L638.799 411.494Z" fill="#1879F9"/>
    </g>
    <g class="layer6">
        <path d="M403.225 292.503L402.752 293.337L453.822 324.252L454.296 323.417L403.225 292.503Z" fill="#1879F9"/>
        <path d="M420.544 313.256L420.075 314.094L453.317 333.935L453.785 333.097L420.544 313.256Z" fill="#1879F9"/>
        <path d="M436.97 333.603L436.471 334.422L452.857 345.073L453.356 344.254L436.97 333.603Z" fill="#1879F9"/>
        <path d="M419.636 323.927L419.172 324.767L429.006 330.566L429.471 329.726L419.636 323.927Z" fill="#1879F9"/>
        <path d="M432.748 300.224L432.282 301.062L454.292 314.121L454.759 313.282L432.748 300.224Z" fill="#1879F9"/>
    </g>
    <g class="layer4">
        <path d="M294.044 330.225C293.959 327.429 291.992 323.984 289.67 322.562C287.356 321.14 285.492 322.233 285.53 324.981C285.577 327.729 287.544 331.173 289.904 332.644C292.264 334.105 294.128 333.021 294.044 330.225Z" fill="#0069FF"/>
        <!-- <path d="M540.367 464.706C540.283 461.91 538.316 458.46 5 535.993 457.043C533.68 455.621 531.816 456.714 531.854 459.462C531.9 462.21 533.867 465.654 536.228 467.125C538.588 468.585 540.452 467.502 540.367 464.706Z" fill="#0069FF"/> -->
        <path d="M164.794 446.323C164.71 443.527 162.743 440.083 160.42 438.661C158.107 437.238 156.243 438.332 156.28 441.08C156.327 443.827 158.294 447.272 160.654 448.742C163.015 450.203 164.878 449.12 164.794 446.323Z" fill="#0069FF"/>
        <path d="M468.25 627.243C468.165 624.447 466.199 621.002 463.876 619.58C461.562 618.158 459.698 619.251 459.736 621.999C459.783 624.747 461.75 628.191 464.11 629.662C466.47 631.123 468.334 630.039 468.25 627.243Z" fill="#0069FF"/>
    </g>
    <g class="layer1">
       <g xmlns="http://www.w3.org/2000/svg" clip-path="url(#clip0_611_56)" style="&#10;    transform: translate(0px, 100px);&#10;">
<path d="M346.954 304.601L359.939 312.377C363.723 314.685 365.553 317.218 365.431 319.974C365.309 322.73 363.368 325.433 359.61 328.082C357.932 329.317 356.008 330.36 353.836 331.213C351.696 332.086 349.403 332.656 346.956 332.922C343.917 333.298 341.285 333.116 339.06 332.376C336.835 331.635 334.738 330.674 332.768 329.495L326.953 326.013L317.308 332.274L310.573 328.241L346.954 304.601ZM347.94 312.414L332.71 322.301C332.876 322.442 333.056 322.571 333.25 322.688C333.476 322.823 333.702 322.959 333.928 323.094C337.002 324.976 339.846 326.279 342.461 327C345.103 327.695 348.492 326.641 352.625 323.836C356.082 321.471 357.158 319.56 355.851 318.102C354.577 316.664 352.635 315.184 350.023 313.662C349.608 313.455 349.223 313.246 348.868 313.033C348.545 312.84 348.206 312.637 347.85 312.424L347.94 312.414Z" fill="white"/>
<path d="M385.438 315.546L392.124 319.55L382.389 325.821L388.397 329.419C391.637 331.443 393.516 333.456 394.036 335.457C394.589 337.476 392.991 339.731 389.246 342.218L372.321 353.18L365.538 349.118L381.701 338.65C383.394 337.552 384.269 336.577 384.327 335.725C384.386 334.873 383.559 333.934 381.847 332.909L376.509 329.649L355.654 343.2L348.967 339.196L385.438 315.546Z" fill="white"/>
<path d="M404.395 338.999L417.38 346.774C421.164 349.082 422.995 351.615 422.872 354.371C422.75 357.128 420.809 359.83 417.051 362.48C415.374 363.714 413.449 364.757 411.277 365.611C409.137 366.484 406.845 367.053 404.397 367.32C401.358 367.696 398.726 367.514 396.502 366.773C394.277 366.033 392.179 365.072 390.209 363.892L384.395 360.41L374.749 366.672L368.014 362.639L404.395 338.999ZM405.381 346.812L390.151 356.698C390.318 356.84 390.498 356.969 390.691 357.085C390.917 357.22 391.144 357.356 391.37 357.491C394.443 359.374 397.288 360.676 399.903 361.397C402.545 362.092 405.933 361.038 410.067 358.234C413.523 355.869 414.599 353.957 413.293 352.5C412.018 351.061 410.076 349.581 407.465 348.059C407.05 347.853 406.665 347.644 406.309 347.431C405.986 347.237 405.647 347.034 405.292 346.821L405.381 346.812Z" fill="white"/>
</g>
    </g>
    <defs>
    <filter id="filter0_f_627_54" x="0" y="0" width="826" height="826" filterUnits="userSpaceOnUse" color-interpolation-filters="sRGB">
    <feFlood flood-opacity="0" result="BackgroundImageFix"/>
    <feBlend mode="normal" in="SourceGraphic" in2="BackgroundImageFix" result="shape"/>
    <feGaussianBlur stdDeviation="140" result="effect1_foregroundBlur_627_54"/>
    </filter>
    <linearGradient id="paint0_linear_627_54" x1="238.438" y1="520.596" x2="508.523" y2="520.596" gradientUnits="userSpaceOnUse">
    <stop stop-color="#333333"/>
    <stop offset="1" stop-color="#1A1A1A"/>
    </linearGradient>
    <linearGradient id="paint1_linear_627_54" x1="462.33" y1="551.711" x2="293.974" y2="459.171" gradientUnits="userSpaceOnUse">
    <stop stop-color="#0069FF"/>
    <stop offset="1" stop-color="#6CA9FF"/>
    </linearGradient>
    <linearGradient id="paint2_linear_627_54" x1="109.02" y1="477.06" x2="109.956" y2="477.06" gradientUnits="userSpaceOnUse">
    <stop stop-color="#1062DF"/>
    <stop offset="1" stop-color="#1062DE" stop-opacity="0.7"/>
    </linearGradient>
    <linearGradient id="paint3_linear_627_54" x1="109.02" y1="532.362" x2="110.019" y2="435.13" gradientUnits="userSpaceOnUse">
    <stop stop-color="#0069FF"/>
    <stop offset="1" stop-color="#A9CCFE"/>
    </linearGradient>
    <linearGradient id="paint4_linear_627_54" x1="440.442" y1="444.746" x2="440.442" y2="539.801" gradientUnits="userSpaceOnUse">
    <stop stop-color="#0069FF"/>
    <stop offset="1" stop-color="#5B90DB" stop-opacity="0"/>
    </linearGradient>
    <linearGradient id="paint5_linear_627_54" x1="305.77" y1="443.972" x2="305.77" y2="539.801" gradientUnits="userSpaceOnUse">
    <stop stop-color="#0069FF"/>
    <stop offset="1" stop-color="#0069FF" stop-opacity="0"/>
    </linearGradient>
    <clipPath id="clip0_627_54">
    <rect width="88.0841" height="89.2806" fill="white" transform="matrix(0.812584 0.582844 -0.819648 0.572868 372.81 392.577)"/>
    </clipPath>
    </defs>
</svg>